<?xml version="1.0" standalone="no"?>
<!DOCTYPE svg PUBLIC "-//W3C//DTD SVG 20010904//EN"
 "http://www.w3.org/TR/2001/REC-SVG-20010904/DTD/svg10.dtd">
<svg version="1.0" xmlns="http://www.w3.org/2000/svg"
 width="300.000000pt" height="300.000000pt" viewBox="0 0 300.000000 300.000000"
 preserveAspectRatio="xMidYMid meet">
<metadata>
Created by potrace 1.14, written by Peter Selinger 2001-2017
</metadata>
<g transform="translate(0.000000,300.000000) scale(0.100000,-0.100000)"
fill="#000000" stroke="none">
<path d="M1311 2276 c-29 -78 -58 -154 -65 -171 -7 -16 -30 -75 -50 -130 -21
-55 -41 -109 -46 -120 -23 -52 -82 -211 -83 -222 0 -7 -4 -13 -9 -13 -4 0 -7
-3 -6 -7 3 -7 -10 -44 -32 -98 -5 -11 -38 -99 -75 -195 -36 -96 -70 -184 -74
-195 -5 -11 -14 -33 -20 -50 -6 -16 -16 -43 -22 -60 -7 -16 -13 -32 -14 -35
-1 -3 -7 -18 -13 -33 -7 -16 -12 -31 -12 -34 0 -3 -6 -19 -14 -36 -24 -53 -94
-242 -98 -262 -3 -18 5 -19 120 -20 73 0 127 4 131 10 4 5 20 46 35 90 53 152
118 330 153 420 19 50 36 97 38 106 5 26 41 125 84 232 6 15 7 27 3 27 -4 0
-2 4 3 8 10 7 43 89 50 124 2 9 9 27 16 40 7 13 14 31 16 40 1 10 19 58 39
107 19 49 37 96 38 103 2 7 7 22 11 33 21 52 47 121 50 130 2 10 18 51 33 88
5 13 22 -25 60 -130 30 -81 58 -157 63 -168 4 -11 27 -72 49 -135 51 -143 79
-219 91 -245 10 -23 70 -185 73 -200 2 -5 6 -19 11 -30 26 -68 57 -152 85
-230 18 -49 37 -103 43 -120 7 -16 11 -33 9 -37 -1 -5 2 -8 6 -8 5 0 9 -6 9
-12 1 -20 74 -222 84 -233 13 -13 249 -14 249 0 0 9 -207 561 -229 610 -15 32
-43 109 -46 125 -2 8 -10 29 -19 45 -9 17 -16 37 -16 45 0 9 -4 20 -8 25 -5 6
-21 44 -36 85 -15 41 -37 100 -49 130 -12 30 -22 57 -23 60 0 3 -6 19 -13 35
-10 26 -36 94 -71 190 -6 17 -11 31 -10 33 1 2 -5 13 -13 25 -7 12 -18 36 -22
52 -11 38 -9 35 -24 70 -7 17 -33 84 -58 150 -24 66 -47 122 -49 125 -3 3 -67
5 -143 5 l-137 1 -53 -140z"/>
<path d="M1402 999 c-118 -58 -127 -234 -16 -312 145 -102 323 58 252 226 -18
41 -68 92 -90 92 -3 0 -10 3 -14 8 -15 14 -90 7 -132 -14z"/>
</g>
</svg>
